<svg height="480pt" viewBox="-28 0 479 480" width="480pt" xmlns="http://www.w3.org/2000/svg"><path d="m80.5 48v32h24v32h-24v96h24v32h-24v32h336l-70-112 70-112zm0 0" fill="#78b9eb"/><path d="m355.941406 160 67.359375-107.761719c1.496094-2.472656 1.554688-5.5625.148438-8.089843-1.402344-2.53125-4.054688-4.113282-6.949219-4.148438h-336c-4.417969 0-8 3.582031-8 8v24h-32v-72h-16v72h-16c-4.417969 0-8 3.582031-8 8v32c0 4.417969 3.582031 8 8 8h16v80h-16c-4.417969 0-8 3.582031-8 8v32c0 4.417969 3.582031 8 8 8h16v232h16v-232h32v24c0 4.417969 3.582031 8 8 8h336c2.894531-.035156 5.546875-1.617188 6.949219-4.148438 1.40625-2.527343 1.347656-5.617187-.148438-8.089843zm-339.441406-72h80v16h-80zm24 32h32v80h-32zm-24 96h80v16h-80zm72 48v-16h16c4.417969 0 8-3.582031 8-8v-32c0-4.417969-3.582031-8-8-8h-16v-80h16c4.417969 0 8-3.582031 8-8v-32c0-4.417969-3.582031-8-8-8h-16v-16h313.601562l-62.402343 99.761719c-1.601563 2.597656-1.601563 5.878906 0 8.476562l62.402343 99.761719zm0 0" fill="#1a6fb0"/></svg>